HIERARCHY
ROOT Hips
{
    OFFSET 0.0 0.0 0.0
    CHANNELS 6 Xposition Yposition Zposition Zrotation Xrotation Yrotation
    JOINT LeftHipJoint
    {
        OFFSET 0.1 0.0 0.0
        CHANNELS 3 Zrotation Xrotation Yrotation
        JOINT LeftUpLeg
        {
            OFFSET 127.86253880355189 0.0 0.0
            CHANNELS 3 Zrotation Xrotation Yrotation
            JOINT LeftLeg
            {
                OFFSET 0.0 0.0 -436.05506183657974
                CHANNELS 3 Zrotation Xrotation Yrotation
                JOINT LeftFoot
                {
                    OFFSET 0.0 0.0 -392.66363825259145
                    CHANNELS 3 Zrotation Xrotation Yrotation
                    End Site
                    {
                        OFFSET 0.0 -0.1 0.0
                    }
                }
            }
        }
    }
    JOINT LowerBack
    {
        OFFSET 0.0 0.0 0.1
        CHANNELS 3 Zrotation Xrotation Yrotation
        JOINT Spine
        {
            OFFSET 0.0 0.0 219.84368618544397
            CHANNELS 3 Zrotation Xrotation Yrotation
            JOINT Spine1
            {
                OFFSET 0.0 0.0 250.74819915124854
                CHANNELS 3 Zrotation Xrotation Yrotation
                JOINT LeftShoulder
                {
                    OFFSET 0.1 0.0 0.0
                    CHANNELS 3 Zrotation Xrotation Yrotation
                    JOINT LeftArm
                    {
                        OFFSET 138.3986827987619 0.0 0.0
                        CHANNELS 3 Zrotation Xrotation Yrotation
                        JOINT LeftForeArm
                        {
                            OFFSET 273.15929302266477 0.0 0.0
                            CHANNELS 3 Zrotation Xrotation Yrotation
                            JOINT LeftHand
                            {
                                OFFSET 252.35181637901238 0.0 0.0
                                CHANNELS 3 Zrotation Xrotation Yrotation
                                End Site
                                {
                                    OFFSET 0.1 0.0 0.0
                                }
                            }
                        }
                    }
                }
                JOINT Neck
                {
                    OFFSET 0.0 0.0 0.1
                    CHANNELS 3 Zrotation Xrotation Yrotation
                    JOINT Neck1
                    {
                        OFFSET 0.0 0.0 101.54573832038163
                        CHANNELS 3 Zrotation Xrotation Yrotation
                        End Site
                        {
                            OFFSET 0.0 0.0 111.67687273602913
                        }
                    }
                }
                JOINT RightShoulder
                {
                    OFFSET -0.1 0.0 0.0
                    CHANNELS 3 Zrotation Xrotation Yrotation
                    JOINT RightArm
                    {
                        OFFSET -138.3986827987619 0.0 0.0
                        CHANNELS 3 Zrotation Xrotation Yrotation
                        JOINT RightForeArm
                        {
                            OFFSET -273.15929302266477 0.0 0.0
                            CHANNELS 3 Zrotation Xrotation Yrotation
                            JOINT RightHand
                            {
                                OFFSET -252.35181637901238 0.0 0.0
                                CHANNELS 3 Zrotation Xrotation Yrotation
                                End Site
                                {
                                    OFFSET -0.1 0.0 0.0
                                }
                            }
                        }
                    }
                }
            }
        }
    }
    JOINT RightHipJoint
    {
        OFFSET -0.1 0.0 0.0
        CHANNELS 3 Zrotation Xrotation Yrotation
        JOINT RightUpLeg
        {
            OFFSET -127.86253880355189 0.0 0.0
            CHANNELS 3 Zrotation Xrotation Yrotation
            JOINT RightLeg
            {
                OFFSET 0.0 0.0 -436.05506183657974
                CHANNELS 3 Zrotation Xrotation Yrotation
                JOINT RightFoot
                {
                    OFFSET 0.0 0.0 -392.66363825259145
                    CHANNELS 3 Zrotation Xrotation Yrotation
                    End Site
                    {
                        OFFSET 0.0 -0.1 0.0
                    }
                }
            }
        }
    }
}
MOTION
Frames: 5
Frame Time: 0.03333333333333333
0.0 0.0 825.5611310487417 33.148785131467605 -3.9708748966612517 4.965861599359045 0.0 0.0 0.0 -0.10248526103890414 -7.118460547735072 -1.3220747589921764 -0.21235943493598997 23.52441292597772 0.16313065358757167 0.0 0.0 0.0 0.0 0.0 0.0 0.12558972316704975 8.60502651613885 2.8795700759648697 1.202320435175621 -8.242940766724446e-16 -2.7744895418592524e-15 0.0 0.0 -6.957463365701443e-16 -31.230715388068866 20.3602760413422 65.78766858569095 -119.59198606485678 2.748761373280377e-15 -1.6000746840511123e-15 0.0 0.0 0.0 0.0 0.0 -6.957463365701443e-16 -21.178609658842987 -2.5814592548891238 -14.490978824945222 0.0 0.0 -6.957463365701443e-16 3.0293308017411444 -43.84011392903523 -45.614125736251 135.9840815273299 -5.332526204049359e-15 4.705720422212139e-15 0.0 0.0 0.0 0.0 0.0 0.0 -0.025834234685640618 -1.7163161617369032 -5.407946172941675 -1.8577253472997004 22.051250894780907 1.221032206774704 -6.3611093629270335e-15 -3.1805546814635168e-15 -7.951386703658794e-16
0.0 0.0 825.5611310487417 33.045316912650456 -4.121780396060318 4.808752145234166 0.0 0.0 0.0 -0.09360670864809674 -7.03069289506724 -1.3282774269169548 -0.24188061785888826 23.50531715611369 0.2627249172069619 0.0 0.0 -3.9756933518293955e-16 0.0 0.0 0.0 0.11701478825769437 8.658352063270733 2.9382360204110523 1.1783616166872852 8.247360157825505e-16 2.874048903547823e-15 0.0 0.0 9.93923337957349e-17 -31.1991175495379 20.48771559712225 65.9223463758464 -119.56089203856698 -1.8274774355445983e-15 -6.297064440684896e-15 0.0 0.0 0.0 0.0 0.0 9.93923337957349e-17 -21.03760203450915 -2.61331670238631 -14.40157494771904 0.0 0.0 9.93923337957349e-17 3.0897555699461603 -43.569697870820384 -45.585168279403305 135.8362985071103 -8.841761601724371e-15 -3.587004950413079e-15 0.0 0.0 0.0 0.0 0.0 0.0 -0.022190725269020863 -1.5820647087605333 -5.43464313669086 -1.9099843350659826 22.222091534320235 1.3136729052968459 0.0 0.0 -7.951386703658791e-16
0.0 0.0 825.5611310487417 32.97250845122417 -4.271245454190277 4.650127103508896 0.0 0.0 0.0 -0.08579910585849201 -6.9438538470908195 -1.3021775675497531 -0.2555407102850599 23.598752968313928 0.31231240121184684 0.0 0.0 7.951386703658792e-16 0.0 0.0 0.0 0.10921335828945415 8.695761999887734 2.990025932838828 1.1679931296541917 -1.1997374357103155e-15 -6.835535360937392e-16 0.0 0.0 -1.987846675914698e-15 -31.238150345360598 20.53245567910018 66.05147421075739 -119.42921675355112 -9.162395775608304e-15 -9.381965734395242e-15 0.0 0.0 -6.3611093629270335e-15 0.0 0.0 -1.987846675914698e-15 -21.021255355146664 -2.688763513436319 -14.38091512089105 0.0 0.0 -1.987846675914698e-15 3.257101168127526 -43.22684211449369 -45.41742153661001 135.69976941763383 -4.7967157864979786e-15 1.1783308829528017e-14 0.0 -3.975693351829396e-16 0.0 0.0 0.0 0.0 -0.017834671653569723 -1.353174675652347 -5.47846312311629 -1.9573283250975757 22.292977901634924 1.4503829811228615 0.0 -3.1805546814635164e-15 0.0
0.0 0.0 825.5611310487417 32.87096677882942 -4.397215413171108 4.549249821816562 -6.3611093629270335e-15 9.93923337957349e-17 5.517382872562698e-33 -0.07794459070541869 -6.837397372720499 -1.3689714506892217 -0.3096325595797203 23.654728852509127 0.481151383305126 0.0 0.0 7.951386703658792e-16 -6.3611093629270335e-15 9.93923337957349e-17 5.517382872562698e-33 0.10095026352201796 8.702728915066885 2.970870407614514 1.1941486443920482 -3.9444052798128937e-16 3.0230377159392394e-16 0.0 0.0 -9.93923337957349e-17 -31.35059162429049 20.58243891827084 66.22633086920028 -119.36575267580861 1.4658784484620846e-14 6.1658932425015725e-15 6.3611093629270335e-15 -3.531125038440127e-31 -6.3611093629270335e-15 0.0 0.0 -9.93923337957349e-17 -20.942104555663416 -2.706465154146435 -14.349366508235667 0.0 0.0 -9.93923337957349e-17 3.179880924636822 -42.98401898509214 -45.3895363235726 135.54386433807403 5.888385928716488e-15 2.406371434673298e-15 0.0 -3.975693351829396e-16 0.0 -6.3611093629270335e-15 9.93923337957349e-17 5.517382872562698e-33 -0.015628238461057178 -1.2765011109783801 -5.543596055455383 -2.0082307942628033 22.30745857812386 1.5846122784455536 0.0 0.0 0.0
0.0 0.0 825.5611310487417 32.84457347892157 -4.4510943455484275 4.439514592551334 0.0 0.0 1.9878466759146977e-16 -0.08078181505857707 -6.746016714615039 -1.3996891224499126 -0.30697311825319484 23.514071833403356 0.6514153599773543 0.0 0.0 -1.1927080055488188e-15 0.0 0.0 1.9878466759146977e-16 0.10579006461181835 8.69811983465718 3.0059753949555716 1.199390226961127 3.9338641356225364e-16 -4.017087031422605e-16 -6.3611093629270335e-15 5.517382872562698e-32 -9.93923337957349e-16 -31.2706193436699 20.57874666396933 66.27367599185666 -119.2387257421318 1.5564252178092736e-14 -1.7508027072997998e-15 0.0 0.0 0.0 -6.3611093629270335e-15 5.517382872562698e-32 -9.93923337957349e-16 -20.819295463764412 -2.7185046390536134 -14.343834037469685 -6.3611093629270335e-15 5.517382872562698e-32 -9.93923337957349e-16 3.056166205614939 -42.85717993675374 -45.32757585207954 135.25562644051791 -4.3223682569891826e-15 1.8857530900857975e-14 0.0 0.0 0.0 0.0 0.0 1.9878466759146977e-16 -0.017210338531976854 -1.357921032260295 -5.477320974976471 -1.977286186907644 22.406499677974175 1.5724140657162333 0.0 0.0 0.0
